<?xml version="1.0" standalone="no"?>
<!DOCTYPE svg PUBLIC "-//W3C//DTD SVG 20010904//EN"
 "http://www.w3.org/TR/2001/REC-SVG-20010904/DTD/svg10.dtd">
<svg version="1.0" xmlns="http://www.w3.org/2000/svg"
 width="512.000000pt" height="512.000000pt" viewBox="0 0 512.000000 512.000000"
 preserveAspectRatio="xMidYMid meet">

<g transform="translate(0.000000,512.000000) scale(0.100000,-0.100000)"
fill="#000000" stroke="none">
<path d="M1570 4866 c-192 -28 -337 -80 -478 -174 -336 -220 -515 -650 -516
-1232 -1 -325 37 -477 219 -890 123 -280 131 -308 205 -740 145 -837 396
-1409 682 -1549 116 -57 261 -52 372 13 94 55 161 174 197 346 18 88 23 160
30 435 5 215 13 354 23 400 41 201 117 335 210 370 42 16 46 16 87 -2 122 -54
207 -243 229 -503 5 -63 10 -203 10 -310 0 -362 42 -550 151 -673 89 -102 245
-141 387 -98 328 99 594 691 762 1695 46 275 71 358 190 629 144 331 187 474
211 707 32 321 -39 748 -169 1005 -74 149 -195 293 -318 381 -197 141 -491
216 -788 201 -208 -11 -365 -58 -582 -172 l-124 -65 -124 65 c-141 74 -253
118 -376 146 -112 26 -359 33 -490 15z m401 -161 c112 -19 193 -46 319 -107
l105 -50 -73 -28 c-77 -30 -261 -80 -372 -101 -71 -14 -120 -50 -120 -89 0
-26 51 -80 76 -80 41 0 260 55 380 95 157 53 243 91 386 172 241 138 401 191
603 200 267 13 505 -45 681 -165 274 -185 428 -579 428 -1092 0 -285 -37 -435
-194 -796 -142 -325 -155 -366 -206 -671 -159 -954 -418 -1552 -687 -1589 -98
-14 -186 36 -231 129 -46 97 -57 178 -66 527 -10 361 -22 457 -75 607 -117
327 -372 444 -571 261 -97 -88 -165 -229 -204 -419 -18 -86 -23 -161 -31 -434
-10 -367 -19 -442 -71 -545 -36 -70 -74 -103 -142 -121 -202 -55 -400 194
-570 716 -81 250 -166 620 -211 920 -31 208 -70 332 -191 606 -98 223 -119
281 -154 414 -37 145 -54 318 -47 472 36 705 308 1086 832 1167 121 19 303 19
406 1z"/>
</g>
</svg>
